<svg id="Layer_1" data-name="Layer 1" xmlns="http://www.w3.org/2000/svg" viewBox="0 0 1065.88 792.66"><title>4</title><path d="M1133.13,722.62c-3.75,10.75-5,19.77-3.67,29.15,4.4,31.32,9.37,62.6,8.38,94.4-2.62,84.18-39.68,147.7-114.35,187.78-10.7,5.74-17.59,11.34-22.15,23.43-14.19,37.66-62.09,56.4-101.16,41.26-3.76-1.45-6.39-2.05-10.09,1.06-30.18,25.34-65.8,38.16-104.26,43.91-64.68,9.66-122.93-6.66-175.69-44.29-3.39-2.43-6-2.51-9.59-1-40.75,16.67-95.47-5.43-106.07-52.2-.83-3.66-3.1-5.14-6.33-6.61C419.7,1008.32,378.6,955.69,365.51,881.7c-7.2-40.7-2.38-81.23,4-121.6,1.9-12.07,2.47-24.06-2.52-37.21-1.72,3.6-3,6.07-4.11,8.63-3.72,8.89-7.74,17.62-13.89,25.16-9,11-19.73,13.32-32.44,7.24a45,45,0,0,1-19-16.93c-12.78-20.24-23.48-41.71-28.84-64.92-7.21-31.18-20-59.84-34.2-88.13-7.84-15.61-15-31.44-17-49.18C214.11,514.08,231.35,488,261,479.82c17.8-4.9,36.09-7.86,53.62-13.82,27.47-9.33,51.72-24.12,73.57-43.05a413,413,0,0,1,69.63-48.56c46.15-25.75,93.53-26.49,142-7.76,13.91,5.38,27.58,11.41,41.16,17.59a17.81,17.81,0,0,0,16.68-.37c9.61-5.08,19.06-10.48,28.62-15.68,9.74-5.29,19.68-9.24,31.15-5.51a14,14,0,0,0,10.38-1c14.86-7.08,29.76-7,44.61,0a14.07,14.07,0,0,0,10.37.94c11.48-3.73,21.4.24,31.12,5.6,8.64,4.75,17.25,9.59,25.86,14.4,7.07,3.95,13.84,4.21,21.56.72,21-9.48,41.79-19.37,64.3-24.89,45.63-11.18,87.75-2.52,127.31,21.88,19.65,12.12,38.9,24.8,56,40.27,33.52,30.23,73,47.75,116.93,56,2.23.41,4.44,1,6.66,1.53,39.47,9.52,58.26,41.68,47.34,81-4.44,16-12,30.58-19.43,45.25a355.89,355.89,0,0,0-28.89,77.21c-5.72,23.65-16.29,45.69-29.64,66.2a45,45,0,0,1-7.26,8.72c-18.1,16.45-35.72,13.94-48.59-6.75C1141.11,741.77,1137.94,732.94,1133.13,722.62Zm30.1,21.82c1.35-4.29.75-7.61.22-10.78-2.59-15.47-5-31-8.21-46.31-17.43-82.92-58.61-153.57-113.72-216.64-25.53-29.23-55.45-53.52-91.18-69.46-25.91-11.55-53.24-17.85-81.21-8.95-12.64,4-24.37,6.12-36.87,1.61-4.15-1.51-4,.25-3.58,3.53,1,7.79,1.36,15.64,2.24,23.43,1.91,16.79,6.66,32.25,21,43,1.8,1.36,4.06,2.91,2.13,5.53-1.75,2.37-4,1.44-6.07.13-1.49-1-2.93-2-4.35-3.06-16-12-21.43-29.43-24.93-47.91-1.88-9.91-2.69-20.1-7.08-29.39-2.61-5.56-12.57-11.06-19-10.29-7.27.87-7.65,7.42-8.94,12.51-3.66,14.38-3.07,29.14-2.83,43.81a396.56,396.56,0,0,1-6.12,77.08c-.67,3.72-.06,10.52-4.23,10-4.59-.62-1.62-6.86-1.4-10.5,2.48-41,.66-82-.43-123-.21-7.95-6.36-14.07-14.11-15.63-13.43-2.7-23.83,5.53-23.82,20.08,0,38.23-2.46,76.45-.2,114.68.21,3.53.64,7.06,1,10.58.18,1.8.5,4-1.75,4.35-2.08.32-2.82-1.79-3.31-3.52-.34-1.21-.46-2.49-.69-3.73-5.53-30-7.39-60.23-6.85-90.69.22-12.62.49-25.39-3.75-37.59-3.5-10.09-12.57-11.72-19.76-3.63-4.53,5.11-6.22,11.5-7.57,18-2.43,11.63-3.84,23.47-7.56,34.82-4.39,13.41-11.72,24.62-23.76,32.38-2.31,1.48-5,3.69-7.25.39-2.1-3.07,1.11-4.47,2.94-5.94,9.71-7.77,15.39-17.89,18.08-29.91,3.05-13.59,3-27.5,5.08-41-2.41-1-3.95.28-5.5.86-12.35,4.59-24.49,5.36-36.86-.31-7.18-3.29-15.08-4.19-23-4.33-32.57-.59-61.48,10.38-88.41,27.82-48.48,31.4-83.6,75-114.76,122.77C367.5,599.49,345,665.52,336.31,736.66c-.3,2.41-1.86,5.27,1.09,7.48.72-.8,1.5-1.29,1.67-1.93q1.23-4.77,2.17-9.6C354.78,664,377.1,599,417.71,541c30.46-43.53,63.88-83.77,109.44-112.35,20.49-12.85,41.87-24,66.7-25.19,15.07-.74,29.87,1.25,43.17,9.25,2.74,1.65,6.34,3.84,4.79,7.6-1.27,3.05-5,1.21-7.58,1.26a36.35,36.35,0,0,1-6-.66c-22.55-3.39-44.56-2.12-65.05,8.82-47.27,25.22-79.85,63-96.1,114.27-4.6,14.49-11,27.72-21,39.12-7.51,8.57-15.09,17.1-23.06,25.24-30.36,31-39.81,68.52-33.48,110.43,3.3,21.9,4.62,43.58,2.29,65.71-3,28.17-4.73,56.4-2.39,84.88,5.22,63.76,42,105.37,93.92,136.84,3.24,2,5,2.56,5.44-2.63,3.84-46.45,21.75-87.26,52-122.23,31.43-36.31,68.31-67,105.47-97.19,15.89-12.92,31.64-26.13,49.92-35.77,44.54-23.49,94.59-18.21,133.46,13.61A1339.28,1339.28,0,0,1,942.89,865.5c29.27,30.17,50.3,65.12,61.91,105.63,3.45,12,5.21,24.43,7.15,37.27,11-5.06,20.08-11.51,28.84-18.33,32.62-25.39,57.83-55.81,66.26-97.67,6-29.86,5.25-59.86,2.84-90-1.67-20.89-5.58-41.72-2.47-62.81,1.37-9.26,3-18.49,3.95-27.79,3.27-33.44-2.48-64.66-24.28-91.4-7.35-9-15.43-17.44-23.33-26-12.44-13.48-24.2-27.43-29.18-45.58-10.82-39.48-33.48-71.17-64.35-97.24-19.61-16.56-41.45-29-67.64-32-12.46-1.39-24.71,1.35-37.07,2-2.53.12-6.19,1.93-7.46-1.45s1.92-5.45,4.42-7.15a33.4,33.4,0,0,1,6.67-3.56c15.46-5.9,31.43-8,47.72-4.78,30.09,6,55.36,21.84,79.06,40.35,53.89,42.07,91.21,97.32,121.92,157.18,21.38,41.69,31.91,87.23,41.37,132.88C1159.85,738.08,1159.64,741.56,1163.23,744.44Zm-542.5,342.14c4.28-.57,7.11-2.65,10-4.47,17-10.73,29.85-25.65,41.67-41.58,13.28-17.91,23.46-37.83,36.25-56.06,7.44-10.59,15.18-20.92,26.12-28.25,12.4-8.32,23.16-7.82,34.78,1.55,5.76,4.65,10.4,10.34,14.82,16.22,10.21,13.57,18.54,28.34,27.44,42.76,13.87,22.48,29,44,50.27,60.26,4.66,3.56,9.31,7.36,16.18,8.94-5.53-5.18-10.62-9.38-15.06-14.2-17.07-18.52-30.69-39.5-42.93-61.43-10-17.87-19.2-36.21-31.54-52.67-7.35-9.8-15.44-18.9-27.34-23.29-3.7-1.37-3.22-4.06-3.38-6.71-.64-11.11-1.18-22.23-1.78-33.35-.68-12.38-1.34-24.75-2.13-37.13-.11-1.86.28-4.73-2.41-4.83-3.26-.13-2.76,2.89-3,5.06-.1,1.26-.06,2.53-.13,3.79q-1.83,33-3.71,65.93c-.19,3.23-.1,6.11-4.81,7.1C727.15,937,717.38,944.88,709.23,955c-11.24,13.93-18.37,30.19-25.8,46.24C668.4,1033.66,648.94,1062.82,620.73,1086.58ZM756.28,797.74q0,14,0,28c0,1.27.07,2.53.15,3.79.78,12.87,7.78,20.53,20.48,22.43,7.47,1.12,14-3,18.87-11.31,3.73-6.34-.83-9.82-4.24-13.76-10.37-12-10.5-26.43-9-40.87.75-7.21,7.34-7.37,13.08-7.17,6.28.22,5.08,5.19,5.22,9,.17,4.91,1.06,9.43,4,13.57,6.39,9.13,15.81,13.17,21.47,9,6.42-4.78,6.29-14.58-.54-23.78-14.76-19.9-36-28.43-59.14-33.83-6.29-1.48-8.69,1-9.47,7.07C755.5,772.49,756,785.12,756.28,797.74Zm-11.17.36c.4-12.89,1.31-25.81-.59-38.67-.78-5.28-2.82-8-8.47-6.51-23.74,6.14-45.38,15.8-60.52,36.27-2.73,3.69-4.95,7.69-4.89,12.49.06,4.53,1.4,8.61,5.4,11.11,4.17,2.6,8.28,1.3,12.12-1.11,8.64-5.42,13.05-12.92,12.45-23.44-.26-4.54.4-9.35,7.12-9.34,5.94,0,11.32,1.51,11.7,8.07.83,14.19,1,28.49-9.43,40.16-3.52,3.94-8.14,7.74-3.9,13.76,4.42,6.27,8.94,12.45,18.19,11.19,12.38-1.68,20-8.86,20.69-21.35C745.6,819.89,745.11,809,745.11,798.1ZM691.76,875c-.52-3.28-2-6.09-5.92-6.32s-6.1,2.38-6.42,5.91c-.38,4.1,2.18,6.93,6.13,7C689.13,881.62,691.29,878.92,691.76,875ZM681,912.6c-.07-3.36-1.71-6.13-5.42-6.62s-6.33,1.76-6.75,5.45c-.44,3.92,1.3,7,5.59,7.36C678.33,919.1,680.21,916.51,681,912.6Zm183.4,11.58c3.84-.52,6.18-2.37,6.13-6.31-.06-4.14-2.23-6.73-6.43-6.53-3.82.18-5.8,3-5.68,6.58S860.72,923.83,864.39,924.18Zm-228.39,0a6.14,6.14,0,0,0,5.53-6.63c-.11-3.53-2.14-6.24-6.07-6.25-4.4,0-6.19,3.05-6.05,6.91C629.55,921.9,632,924,636,924.17Zm195.13-11.81c-.19-4.06-2.32-6.42-6-6.45s-6.09,2.79-6.1,6.28c0,3.8,2.17,6.85,6.49,6.59C829.31,918.55,831,915.85,831.13,912.36ZM648.44,885.25c-3.84.41-6.05,2.67-6,6.45s2.13,6.31,6.15,6.25,6-2.43,5.95-6.35S652.42,885.58,648.44,885.25Zm165.85-16.69c-3.51.48-5.93,2.66-6,6.37s2,6.43,6,6.49,6.12-2.26,6.14-6.18S818.49,869.12,814.29,868.56Zm43.44,22.74c-.82-3.15-2.22-6-6.35-6s-5.92,2.67-5.93,6.38,2,6.28,6,6.26S857.06,895.15,857.73,891.3ZM653.9,866c4-.38,6.15-2.8,6.09-6.45s-2.13-6.34-6.14-6.29-5.94,2.6-5.92,6.38S650,865.72,653.9,866Zm-27,7c-.61-3.78-2.66-6.27-6.5-6.21s-5.89,2.7-5.77,6.53,2.26,6.25,6.2,6.13S626.45,876.64,626.91,873Zm225.4-13.55c-.5-3.18-1.85-6.07-5.95-6.19s-6.2,2.31-6.34,6.05,1.88,6.35,5.83,6.56S851.7,863.6,852.31,859.49Zm33.31,13.56c-.5-3.35-2.1-6.16-6.08-6.21s-6.13,2.37-6.21,6.18,2,6.32,5.91,6.47S885,877,885.62,873.05Z" transform="translate(-217.06 -353.67)"/><path d="M656.57,715.28c11.77-14.81,23.08-29.11,37.88-40.11,4.7-3.48,9.46-6.83,14.92-9,2.84-1.12,4.51-2.74,5-5.89,2.65-16.08,3.86-32.13.08-48.23-7.2-30.62-36-39-61.12-35.84-34.55,4.35-65.41,19-94.82,36.76-37.77,22.8-70.38,51.19-93.73,89.19A181.82,181.82,0,0,0,449.18,735c-.8,2.16-1,6-4.24,4.94s-1-4.41-.46-6.64c8.11-32.53,25.31-60,48.16-84,40.54-42.54,88.7-72.56,146.21-86.53,18.11-4.4,36.16-4.07,53.7,3,13.4,5.39,23.4,14.62,29.93,28.27,5.65-25.7-9.19-60-32.42-75.84-4.58-3.12-9.72-5.41-14.41-8.4-2.22-1.41-7.34-1.24-5.51-5.44,1.41-3.24,5.14-.62,7.43.21,29.74,10.79,49.61,30.53,55.92,62.37,5.69,28.74.14,56.33-8.49,83.61-1,3.29-2.13,6.57-3.49,10.75,19-4.7,37.19-5,55.81-.2.86-3.68-1-6.3-1.86-9-8.21-25.75-14-51.8-10.1-79.07,4.91-34.45,24.63-56.7,56.85-68.56,1.41-.52,2.92-.81,4.38-1.21s3.16-.31,3.81,1.42c.71,1.91-.93,2.7-2.23,3.39-4.46,2.37-9.11,4.42-13.45,7-26.35,15.62-42,48-37.73,78.46,2.92-4.15,5.26-8.29,8.36-11.78,17.76-20,41-24.74,65.81-20.59,55.18,9.23,101.3,36.89,142.05,74,28.72,26.17,51,56.86,61.47,94.94.87,3.17,3.84,8.46.41,9.47-4.9,1.45-4.2-4.95-5.38-8-15-38.41-40.76-68.53-72.56-93.77-35.88-28.47-75.38-50-120.51-60.19A76.57,76.57,0,0,0,816.15,579c-20.79,6.54-30,22-32.32,42.5a132.58,132.58,0,0,0,1.54,37.82c.42,2.42.77,4.84,3.66,6.12,20.9,9.23,35.14,26.07,49.11,43.19,1.44,1.77,2.82,3.57,4.29,5.32a10.58,10.58,0,0,0,2.1,1.23c10.08-25.16,17-50,2.28-75.73-4.54-8-10.29-15-15.55-22.46-1.7-2.39-4.8-4.93-3.33-8,1.64-3.44,5.81-2.42,8.88-2.41a106.12,106.12,0,0,1,32.11,5.12c43,13.83,83,33.52,117.87,62.66,27.84,23.29,45.88,53.12,55.19,88,3.62,13.59,9.36,25.34,19.31,35.39,11.25,11.37,9.75,18.09-5.55,23.53-14.46,5.15-23.12,14.75-26.94,29.31q-2.61,9.9-5.82,19.63c-4.87,14.86-14.07,19.34-28.83,13.74-15.59-5.92-29.06-15.51-41.44-26.36A701.12,701.12,0,0,1,855,751.84c-13.55-18-26.89-36.19-43.29-51.81-36.56-34.81-86.93-34.76-123.36.06-16.75,16-30.24,34.71-44.24,53-30.55,39.92-64,77.15-102.76,109.35a134.91,134.91,0,0,1-33.38,20.85c-16.29,6.9-26.23,2.2-31.43-14.51-2.32-7.48-4.47-15-6.82-22.49-3.55-11.33-10.68-19.35-22-23.4-1.66-.6-3.31-1.27-4.94-1.95-13.25-5.56-15-11.86-5.09-22,10.21-10.42,16.63-22.32,20.4-36.5,11-41.4,34.18-74.79,69.39-99.31,36.39-25.33,75.29-45.56,119.07-55a68.7,68.7,0,0,1,21.14-1.36c5.11.49,6.31,2.66,3.4,6.82-3.92,5.59-7.83,11.21-12.06,16.57C637.67,657.19,643.87,692.11,656.57,715.28Zm274.28-11.37c-24.25,3.81-44.38,27.57-44.81,52.88S907.54,806.87,935,812c26.32,5,52-8.86,58-23.64-32.18,22.87-63.59,20.86-82.75-5.28S898.69,728.08,930.85,703.91Zm-359.24,1c30.53,26.75,36.72,53.84,17.71,78.72-10.28,13.44-24.17,20.5-41.08,21.07-16.68.57-30.56-6.18-42.39-17.75,10.49,20.1,41.08,31,65.59,23.79,25.55-7.49,44.09-31.82,42.14-55.4C611.21,726.61,587.24,706,571.61,704.94Zm385.14,30.25A12.29,12.29,0,0,0,945,723.59c-6.51,0-12.28,5.68-12.12,12a12.25,12.25,0,0,0,12.54,11.55C951.62,746.85,956.89,741.27,956.75,735.19Zm-389.81.38a11.77,11.77,0,1,0-11.6,11.61A12,12,0,0,0,566.94,735.57Z" transform="translate(-217.06 -353.67)"/></svg>